<svg width="62" height="14" viewBox="0 0 62 14" fill="none" xmlns="http://www.w3.org/2000/svg">
<path d="M7.991 14C5.49014 14 3.17925 12.6658 1.92882 10.5C0.67839 8.33419 0.67839 5.66581 1.92882 3.5C3.17925 1.33419 5.49014 -3.72657e-08 7.991 0C11.857 5.76078e-08 14.991 3.13401 14.991 7C14.991 10.866 11.857 14 7.991 14V14Z" fill="white"/>
<path d="M31.002 14C28.5011 14 26.1903 12.6658 24.9398 10.5C23.6894 8.33419 23.6894 5.66581 24.9398 3.5C26.1903 1.33419 28.5011 -3.72657e-08 31.002 0C34.868 5.76078e-08 38.002 3.13401 38.002 7C38.002 10.866 34.868 14 31.002 14V14Z" fill="white"/>
<path d="M54.013 14C51.5121 14 49.2013 12.6658 47.9508 10.5C46.7004 8.33419 46.7004 5.66581 47.9508 3.5C49.2013 1.33419 51.5121 -3.72657e-08 54.013 0C57.879 5.76078e-08 61.013 3.13401 61.013 7C61.013 10.866 57.879 14 54.013 14V14Z" fill="white"/>
</svg>
